<mxfile host="app.diagrams.net" modified="2023-02-16T18:24:52.242Z" agent="5.0 (X11; Linux x86_64) AppleWebKit/537.36 (KHTML, like Gecko) Chrome/109.0.0.0 Safari/537.36" etag="ZrNHbSq2KkoD8-NKdhY0" version="20.8.20" type="github">
  <diagram id="R2lEEEUBdFMjLlhIrx00" name="Page-1">
    <mxGraphModel dx="1583" dy="1508" grid="1" gridSize="10" guides="1" tooltips="1" connect="1" arrows="1" fold="1" page="1" pageScale="1" pageWidth="850" pageHeight="1100" math="0" shadow="0" extFonts="Permanent Marker^https://fonts.googleapis.com/css?family=Permanent+Marker">
      <root>
        <mxCell id="0" />
        <mxCell id="1" parent="0" />
        <mxCell id="C-vyLk0tnHw3VtMMgP7b-12" value="" style="edgeStyle=entityRelationEdgeStyle;endArrow=ERzeroToMany;startArrow=ERone;endFill=1;startFill=0;" parent="1" target="C-vyLk0tnHw3VtMMgP7b-17" edge="1">
          <mxGeometry width="100" height="100" relative="1" as="geometry">
            <mxPoint x="700" y="165" as="sourcePoint" />
            <mxPoint x="460" y="205" as="targetPoint" />
          </mxGeometry>
        </mxCell>
        <mxCell id="xOh4gRkhBfYzAbslTxhH-2" value="boutique" style="shape=table;startSize=30;container=1;collapsible=1;childLayout=tableLayout;fixedRows=1;rowLines=0;fontStyle=1;align=center;resizeLast=1;strokeWidth=1;fontSize=10;" vertex="1" parent="1">
          <mxGeometry x="50" y="590" width="170" height="265" as="geometry" />
        </mxCell>
        <mxCell id="xOh4gRkhBfYzAbslTxhH-3" value="" style="shape=tableRow;horizontal=0;startSize=0;swimlaneHead=0;swimlaneBody=0;fillColor=none;collapsible=0;dropTarget=0;points=[[0,0.5],[1,0.5]];portConstraint=eastwest;top=0;left=0;right=0;bottom=1;strokeWidth=1;fontSize=10;" vertex="1" parent="xOh4gRkhBfYzAbslTxhH-2">
          <mxGeometry y="30" width="170" height="30" as="geometry" />
        </mxCell>
        <mxCell id="xOh4gRkhBfYzAbslTxhH-4" value="PK" style="shape=partialRectangle;connectable=0;fillColor=none;top=0;left=0;bottom=0;right=0;fontStyle=1;overflow=hidden;strokeWidth=1;fontSize=10;" vertex="1" parent="xOh4gRkhBfYzAbslTxhH-3">
          <mxGeometry width="30" height="30" as="geometry">
            <mxRectangle width="30" height="30" as="alternateBounds" />
          </mxGeometry>
        </mxCell>
        <mxCell id="xOh4gRkhBfYzAbslTxhH-5" value="id" style="shape=partialRectangle;connectable=0;fillColor=none;top=0;left=0;bottom=0;right=0;align=left;spacingLeft=6;fontStyle=5;overflow=hidden;strokeWidth=1;fontSize=10;" vertex="1" parent="xOh4gRkhBfYzAbslTxhH-3">
          <mxGeometry x="30" width="140" height="30" as="geometry">
            <mxRectangle width="140" height="30" as="alternateBounds" />
          </mxGeometry>
        </mxCell>
        <mxCell id="xOh4gRkhBfYzAbslTxhH-6" value="" style="shape=tableRow;horizontal=0;startSize=0;swimlaneHead=0;swimlaneBody=0;fillColor=none;collapsible=0;dropTarget=0;points=[[0,0.5],[1,0.5]];portConstraint=eastwest;top=0;left=0;right=0;bottom=0;strokeWidth=1;fontSize=10;" vertex="1" parent="xOh4gRkhBfYzAbslTxhH-2">
          <mxGeometry y="60" width="170" height="30" as="geometry" />
        </mxCell>
        <mxCell id="xOh4gRkhBfYzAbslTxhH-7" value="" style="shape=partialRectangle;connectable=0;fillColor=none;top=0;left=0;bottom=0;right=0;editable=1;overflow=hidden;strokeWidth=1;fontSize=10;" vertex="1" parent="xOh4gRkhBfYzAbslTxhH-6">
          <mxGeometry width="30" height="30" as="geometry">
            <mxRectangle width="30" height="30" as="alternateBounds" />
          </mxGeometry>
        </mxCell>
        <mxCell id="xOh4gRkhBfYzAbslTxhH-8" value="Nom                         varchar" style="shape=partialRectangle;connectable=0;fillColor=none;top=0;left=0;bottom=0;right=0;align=left;spacingLeft=6;overflow=hidden;strokeWidth=1;fontSize=10;" vertex="1" parent="xOh4gRkhBfYzAbslTxhH-6">
          <mxGeometry x="30" width="140" height="30" as="geometry">
            <mxRectangle width="140" height="30" as="alternateBounds" />
          </mxGeometry>
        </mxCell>
        <mxCell id="xOh4gRkhBfYzAbslTxhH-9" value="" style="shape=tableRow;horizontal=0;startSize=0;swimlaneHead=0;swimlaneBody=0;fillColor=none;collapsible=0;dropTarget=0;points=[[0,0.5],[1,0.5]];portConstraint=eastwest;top=0;left=0;right=0;bottom=0;strokeWidth=1;fontSize=10;" vertex="1" parent="xOh4gRkhBfYzAbslTxhH-2">
          <mxGeometry y="90" width="170" height="30" as="geometry" />
        </mxCell>
        <mxCell id="xOh4gRkhBfYzAbslTxhH-10" value="" style="shape=partialRectangle;connectable=0;fillColor=none;top=0;left=0;bottom=0;right=0;editable=1;overflow=hidden;strokeWidth=1;fontSize=10;" vertex="1" parent="xOh4gRkhBfYzAbslTxhH-9">
          <mxGeometry width="30" height="30" as="geometry">
            <mxRectangle width="30" height="30" as="alternateBounds" />
          </mxGeometry>
        </mxCell>
        <mxCell id="xOh4gRkhBfYzAbslTxhH-11" value="Description               varchar" style="shape=partialRectangle;connectable=0;fillColor=none;top=0;left=0;bottom=0;right=0;align=left;spacingLeft=6;overflow=hidden;strokeWidth=1;fontSize=10;" vertex="1" parent="xOh4gRkhBfYzAbslTxhH-9">
          <mxGeometry x="30" width="140" height="30" as="geometry">
            <mxRectangle width="140" height="30" as="alternateBounds" />
          </mxGeometry>
        </mxCell>
        <mxCell id="xOh4gRkhBfYzAbslTxhH-12" value="" style="shape=tableRow;horizontal=0;startSize=0;swimlaneHead=0;swimlaneBody=0;fillColor=none;collapsible=0;dropTarget=0;points=[[0,0.5],[1,0.5]];portConstraint=eastwest;top=0;left=0;right=0;bottom=0;strokeWidth=1;fontSize=10;" vertex="1" parent="xOh4gRkhBfYzAbslTxhH-2">
          <mxGeometry y="120" width="170" height="29" as="geometry" />
        </mxCell>
        <mxCell id="xOh4gRkhBfYzAbslTxhH-13" value="" style="shape=partialRectangle;connectable=0;fillColor=none;top=0;left=0;bottom=0;right=0;editable=1;overflow=hidden;strokeWidth=1;fontSize=10;" vertex="1" parent="xOh4gRkhBfYzAbslTxhH-12">
          <mxGeometry width="30" height="29" as="geometry">
            <mxRectangle width="30" height="29" as="alternateBounds" />
          </mxGeometry>
        </mxCell>
        <mxCell id="xOh4gRkhBfYzAbslTxhH-14" value="Conge                         bit(1)" style="shape=partialRectangle;connectable=0;fillColor=none;top=0;left=0;bottom=0;right=0;align=left;spacingLeft=6;overflow=hidden;strokeWidth=1;fontSize=10;" vertex="1" parent="xOh4gRkhBfYzAbslTxhH-12">
          <mxGeometry x="30" width="140" height="29" as="geometry">
            <mxRectangle width="140" height="29" as="alternateBounds" />
          </mxGeometry>
        </mxCell>
        <mxCell id="xOh4gRkhBfYzAbslTxhH-15" value="" style="shape=tableRow;horizontal=0;startSize=0;swimlaneHead=0;swimlaneBody=0;fillColor=none;collapsible=0;dropTarget=0;points=[[0,0.5],[1,0.5]];portConstraint=eastwest;top=0;left=0;right=0;bottom=0;strokeWidth=1;fontSize=10;" vertex="1" parent="xOh4gRkhBfYzAbslTxhH-2">
          <mxGeometry y="149" width="170" height="29" as="geometry" />
        </mxCell>
        <mxCell id="xOh4gRkhBfYzAbslTxhH-16" value="" style="shape=partialRectangle;connectable=0;fillColor=none;top=0;left=0;bottom=0;right=0;editable=1;overflow=hidden;strokeWidth=1;fontSize=10;" vertex="1" parent="xOh4gRkhBfYzAbslTxhH-15">
          <mxGeometry width="30" height="29" as="geometry">
            <mxRectangle width="30" height="29" as="alternateBounds" />
          </mxGeometry>
        </mxCell>
        <mxCell id="xOh4gRkhBfYzAbslTxhH-17" value="Horaire                          text" style="shape=partialRectangle;connectable=0;fillColor=none;top=0;left=0;bottom=0;right=0;align=left;spacingLeft=6;overflow=hidden;strokeWidth=1;fontSize=10;" vertex="1" parent="xOh4gRkhBfYzAbslTxhH-15">
          <mxGeometry x="30" width="140" height="29" as="geometry">
            <mxRectangle width="140" height="29" as="alternateBounds" />
          </mxGeometry>
        </mxCell>
        <mxCell id="xOh4gRkhBfYzAbslTxhH-18" value="" style="shape=tableRow;horizontal=0;startSize=0;swimlaneHead=0;swimlaneBody=0;fillColor=none;collapsible=0;dropTarget=0;points=[[0,0.5],[1,0.5]];portConstraint=eastwest;top=0;left=0;right=0;bottom=0;strokeWidth=1;fontSize=10;" vertex="1" parent="xOh4gRkhBfYzAbslTxhH-2">
          <mxGeometry y="178" width="170" height="29" as="geometry" />
        </mxCell>
        <mxCell id="xOh4gRkhBfYzAbslTxhH-19" value="" style="shape=partialRectangle;connectable=0;fillColor=none;top=0;left=0;bottom=0;right=0;editable=1;overflow=hidden;strokeWidth=1;fontSize=10;" vertex="1" parent="xOh4gRkhBfYzAbslTxhH-18">
          <mxGeometry width="30" height="29" as="geometry">
            <mxRectangle width="30" height="29" as="alternateBounds" />
          </mxGeometry>
        </mxCell>
        <mxCell id="xOh4gRkhBfYzAbslTxhH-20" value="creation_date         datetime" style="shape=partialRectangle;connectable=0;fillColor=none;top=0;left=0;bottom=0;right=0;align=left;spacingLeft=6;overflow=hidden;strokeWidth=1;fontSize=10;" vertex="1" parent="xOh4gRkhBfYzAbslTxhH-18">
          <mxGeometry x="30" width="140" height="29" as="geometry">
            <mxRectangle width="140" height="29" as="alternateBounds" />
          </mxGeometry>
        </mxCell>
        <mxCell id="xOh4gRkhBfYzAbslTxhH-21" value="" style="shape=tableRow;horizontal=0;startSize=0;swimlaneHead=0;swimlaneBody=0;fillColor=none;collapsible=0;dropTarget=0;points=[[0,0.5],[1,0.5]];portConstraint=eastwest;top=0;left=0;right=0;bottom=0;strokeWidth=1;fontSize=10;" vertex="1" parent="xOh4gRkhBfYzAbslTxhH-2">
          <mxGeometry y="207" width="170" height="29" as="geometry" />
        </mxCell>
        <mxCell id="xOh4gRkhBfYzAbslTxhH-22" value="" style="shape=partialRectangle;connectable=0;fillColor=none;top=0;left=0;bottom=0;right=0;editable=1;overflow=hidden;strokeWidth=1;fontSize=10;" vertex="1" parent="xOh4gRkhBfYzAbslTxhH-21">
          <mxGeometry width="30" height="29" as="geometry">
            <mxRectangle width="30" height="29" as="alternateBounds" />
          </mxGeometry>
        </mxCell>
        <mxCell id="xOh4gRkhBfYzAbslTxhH-23" value="last_modit_dat        datetime" style="shape=partialRectangle;connectable=0;fillColor=none;top=0;left=0;bottom=0;right=0;align=left;spacingLeft=6;overflow=hidden;strokeWidth=1;fontSize=10;" vertex="1" parent="xOh4gRkhBfYzAbslTxhH-21">
          <mxGeometry x="30" width="140" height="29" as="geometry">
            <mxRectangle width="140" height="29" as="alternateBounds" />
          </mxGeometry>
        </mxCell>
        <mxCell id="xOh4gRkhBfYzAbslTxhH-115" value="" style="shape=tableRow;horizontal=0;startSize=0;swimlaneHead=0;swimlaneBody=0;fillColor=none;collapsible=0;dropTarget=0;points=[[0,0.5],[1,0.5]];portConstraint=eastwest;top=0;left=0;right=0;bottom=0;strokeWidth=1;fontSize=10;" vertex="1" parent="xOh4gRkhBfYzAbslTxhH-2">
          <mxGeometry y="236" width="170" height="29" as="geometry" />
        </mxCell>
        <mxCell id="xOh4gRkhBfYzAbslTxhH-116" value="" style="shape=partialRectangle;connectable=0;fillColor=none;top=0;left=0;bottom=0;right=0;editable=1;overflow=hidden;strokeWidth=1;fontSize=10;" vertex="1" parent="xOh4gRkhBfYzAbslTxhH-115">
          <mxGeometry width="30" height="29" as="geometry">
            <mxRectangle width="30" height="29" as="alternateBounds" />
          </mxGeometry>
        </mxCell>
        <mxCell id="xOh4gRkhBfYzAbslTxhH-117" value="url_photo                  varchar" style="shape=partialRectangle;connectable=0;fillColor=none;top=0;left=0;bottom=0;right=0;align=left;spacingLeft=6;overflow=hidden;strokeWidth=1;fontSize=10;" vertex="1" parent="xOh4gRkhBfYzAbslTxhH-115">
          <mxGeometry x="30" width="140" height="29" as="geometry">
            <mxRectangle width="140" height="29" as="alternateBounds" />
          </mxGeometry>
        </mxCell>
        <mxCell id="xOh4gRkhBfYzAbslTxhH-27" value="produit" style="shape=table;startSize=30;container=1;collapsible=1;childLayout=tableLayout;fixedRows=1;rowLines=0;fontStyle=1;align=center;resizeLast=1;strokeWidth=1;fontSize=10;" vertex="1" parent="1">
          <mxGeometry x="320" y="470" width="170" height="265" as="geometry" />
        </mxCell>
        <mxCell id="xOh4gRkhBfYzAbslTxhH-28" value="" style="shape=tableRow;horizontal=0;startSize=0;swimlaneHead=0;swimlaneBody=0;fillColor=none;collapsible=0;dropTarget=0;points=[[0,0.5],[1,0.5]];portConstraint=eastwest;top=0;left=0;right=0;bottom=1;strokeWidth=1;fontSize=10;" vertex="1" parent="xOh4gRkhBfYzAbslTxhH-27">
          <mxGeometry y="30" width="170" height="30" as="geometry" />
        </mxCell>
        <mxCell id="xOh4gRkhBfYzAbslTxhH-29" value="PK" style="shape=partialRectangle;connectable=0;fillColor=none;top=0;left=0;bottom=0;right=0;fontStyle=1;overflow=hidden;strokeWidth=1;fontSize=10;" vertex="1" parent="xOh4gRkhBfYzAbslTxhH-28">
          <mxGeometry width="30" height="30" as="geometry">
            <mxRectangle width="30" height="30" as="alternateBounds" />
          </mxGeometry>
        </mxCell>
        <mxCell id="xOh4gRkhBfYzAbslTxhH-30" value="id" style="shape=partialRectangle;connectable=0;fillColor=none;top=0;left=0;bottom=0;right=0;align=left;spacingLeft=6;fontStyle=5;overflow=hidden;strokeWidth=1;fontSize=10;" vertex="1" parent="xOh4gRkhBfYzAbslTxhH-28">
          <mxGeometry x="30" width="140" height="30" as="geometry">
            <mxRectangle width="140" height="30" as="alternateBounds" />
          </mxGeometry>
        </mxCell>
        <mxCell id="xOh4gRkhBfYzAbslTxhH-31" value="" style="shape=tableRow;horizontal=0;startSize=0;swimlaneHead=0;swimlaneBody=0;fillColor=none;collapsible=0;dropTarget=0;points=[[0,0.5],[1,0.5]];portConstraint=eastwest;top=0;left=0;right=0;bottom=0;strokeWidth=1;fontSize=10;" vertex="1" parent="xOh4gRkhBfYzAbslTxhH-27">
          <mxGeometry y="60" width="170" height="30" as="geometry" />
        </mxCell>
        <mxCell id="xOh4gRkhBfYzAbslTxhH-32" value="" style="shape=partialRectangle;connectable=0;fillColor=none;top=0;left=0;bottom=0;right=0;editable=1;overflow=hidden;strokeWidth=1;fontSize=10;" vertex="1" parent="xOh4gRkhBfYzAbslTxhH-31">
          <mxGeometry width="30" height="30" as="geometry">
            <mxRectangle width="30" height="30" as="alternateBounds" />
          </mxGeometry>
        </mxCell>
        <mxCell id="xOh4gRkhBfYzAbslTxhH-33" value="Nom                         varchar" style="shape=partialRectangle;connectable=0;fillColor=none;top=0;left=0;bottom=0;right=0;align=left;spacingLeft=6;overflow=hidden;strokeWidth=1;fontSize=10;" vertex="1" parent="xOh4gRkhBfYzAbslTxhH-31">
          <mxGeometry x="30" width="140" height="30" as="geometry">
            <mxRectangle width="140" height="30" as="alternateBounds" />
          </mxGeometry>
        </mxCell>
        <mxCell id="xOh4gRkhBfYzAbslTxhH-34" value="" style="shape=tableRow;horizontal=0;startSize=0;swimlaneHead=0;swimlaneBody=0;fillColor=none;collapsible=0;dropTarget=0;points=[[0,0.5],[1,0.5]];portConstraint=eastwest;top=0;left=0;right=0;bottom=0;strokeWidth=1;fontSize=10;" vertex="1" parent="xOh4gRkhBfYzAbslTxhH-27">
          <mxGeometry y="90" width="170" height="30" as="geometry" />
        </mxCell>
        <mxCell id="xOh4gRkhBfYzAbslTxhH-35" value="" style="shape=partialRectangle;connectable=0;fillColor=none;top=0;left=0;bottom=0;right=0;editable=1;overflow=hidden;strokeWidth=1;fontSize=10;" vertex="1" parent="xOh4gRkhBfYzAbslTxhH-34">
          <mxGeometry width="30" height="30" as="geometry">
            <mxRectangle width="30" height="30" as="alternateBounds" />
          </mxGeometry>
        </mxCell>
        <mxCell id="xOh4gRkhBfYzAbslTxhH-36" value="Description              varchar" style="shape=partialRectangle;connectable=0;fillColor=none;top=0;left=0;bottom=0;right=0;align=left;spacingLeft=6;overflow=hidden;strokeWidth=1;fontSize=10;" vertex="1" parent="xOh4gRkhBfYzAbslTxhH-34">
          <mxGeometry x="30" width="140" height="30" as="geometry">
            <mxRectangle width="140" height="30" as="alternateBounds" />
          </mxGeometry>
        </mxCell>
        <mxCell id="xOh4gRkhBfYzAbslTxhH-37" value="" style="shape=tableRow;horizontal=0;startSize=0;swimlaneHead=0;swimlaneBody=0;fillColor=none;collapsible=0;dropTarget=0;points=[[0,0.5],[1,0.5]];portConstraint=eastwest;top=0;left=0;right=0;bottom=0;strokeWidth=1;fontSize=10;" vertex="1" parent="xOh4gRkhBfYzAbslTxhH-27">
          <mxGeometry y="120" width="170" height="29" as="geometry" />
        </mxCell>
        <mxCell id="xOh4gRkhBfYzAbslTxhH-38" value="" style="shape=partialRectangle;connectable=0;fillColor=none;top=0;left=0;bottom=0;right=0;editable=1;overflow=hidden;strokeWidth=1;fontSize=10;" vertex="1" parent="xOh4gRkhBfYzAbslTxhH-37">
          <mxGeometry width="30" height="29" as="geometry">
            <mxRectangle width="30" height="29" as="alternateBounds" />
          </mxGeometry>
        </mxCell>
        <mxCell id="xOh4gRkhBfYzAbslTxhH-39" value="Prix                            double" style="shape=partialRectangle;connectable=0;fillColor=none;top=0;left=0;bottom=0;right=0;align=left;spacingLeft=6;overflow=hidden;strokeWidth=1;fontSize=10;" vertex="1" parent="xOh4gRkhBfYzAbslTxhH-37">
          <mxGeometry x="30" width="140" height="29" as="geometry">
            <mxRectangle width="140" height="29" as="alternateBounds" />
          </mxGeometry>
        </mxCell>
        <mxCell id="xOh4gRkhBfYzAbslTxhH-40" value="" style="shape=tableRow;horizontal=0;startSize=0;swimlaneHead=0;swimlaneBody=0;fillColor=none;collapsible=0;dropTarget=0;points=[[0,0.5],[1,0.5]];portConstraint=eastwest;top=0;left=0;right=0;bottom=0;strokeWidth=1;fontSize=10;" vertex="1" parent="xOh4gRkhBfYzAbslTxhH-27">
          <mxGeometry y="149" width="170" height="29" as="geometry" />
        </mxCell>
        <mxCell id="xOh4gRkhBfYzAbslTxhH-41" value="" style="shape=partialRectangle;connectable=0;fillColor=none;top=0;left=0;bottom=0;right=0;editable=1;overflow=hidden;strokeWidth=1;fontSize=10;" vertex="1" parent="xOh4gRkhBfYzAbslTxhH-40">
          <mxGeometry width="30" height="29" as="geometry">
            <mxRectangle width="30" height="29" as="alternateBounds" />
          </mxGeometry>
        </mxCell>
        <mxCell id="xOh4gRkhBfYzAbslTxhH-42" value="creation_date         datetime" style="shape=partialRectangle;connectable=0;fillColor=none;top=0;left=0;bottom=0;right=0;align=left;spacingLeft=6;overflow=hidden;strokeWidth=1;fontSize=10;" vertex="1" parent="xOh4gRkhBfYzAbslTxhH-40">
          <mxGeometry x="30" width="140" height="29" as="geometry">
            <mxRectangle width="140" height="29" as="alternateBounds" />
          </mxGeometry>
        </mxCell>
        <mxCell id="xOh4gRkhBfYzAbslTxhH-43" value="" style="shape=tableRow;horizontal=0;startSize=0;swimlaneHead=0;swimlaneBody=0;fillColor=none;collapsible=0;dropTarget=0;points=[[0,0.5],[1,0.5]];portConstraint=eastwest;top=0;left=0;right=0;bottom=0;strokeWidth=1;fontSize=10;" vertex="1" parent="xOh4gRkhBfYzAbslTxhH-27">
          <mxGeometry y="178" width="170" height="29" as="geometry" />
        </mxCell>
        <mxCell id="xOh4gRkhBfYzAbslTxhH-44" value="" style="shape=partialRectangle;connectable=0;fillColor=none;top=0;left=0;bottom=0;right=0;editable=1;overflow=hidden;strokeWidth=1;fontSize=10;" vertex="1" parent="xOh4gRkhBfYzAbslTxhH-43">
          <mxGeometry width="30" height="29" as="geometry">
            <mxRectangle width="30" height="29" as="alternateBounds" />
          </mxGeometry>
        </mxCell>
        <mxCell id="xOh4gRkhBfYzAbslTxhH-45" value="last_modit_dat        datetime" style="shape=partialRectangle;connectable=0;fillColor=none;top=0;left=0;bottom=0;right=0;align=left;spacingLeft=6;overflow=hidden;strokeWidth=1;fontSize=10;" vertex="1" parent="xOh4gRkhBfYzAbslTxhH-43">
          <mxGeometry x="30" width="140" height="29" as="geometry">
            <mxRectangle width="140" height="29" as="alternateBounds" />
          </mxGeometry>
        </mxCell>
        <mxCell id="xOh4gRkhBfYzAbslTxhH-46" value="" style="shape=tableRow;horizontal=0;startSize=0;swimlaneHead=0;swimlaneBody=0;fillColor=none;collapsible=0;dropTarget=0;points=[[0,0.5],[1,0.5]];portConstraint=eastwest;top=0;left=0;right=0;bottom=0;strokeWidth=1;fontSize=10;" vertex="1" parent="xOh4gRkhBfYzAbslTxhH-27">
          <mxGeometry y="207" width="170" height="29" as="geometry" />
        </mxCell>
        <mxCell id="xOh4gRkhBfYzAbslTxhH-47" value="" style="shape=partialRectangle;connectable=0;fillColor=none;top=0;left=0;bottom=0;right=0;editable=1;overflow=hidden;strokeWidth=1;fontSize=10;" vertex="1" parent="xOh4gRkhBfYzAbslTxhH-46">
          <mxGeometry width="30" height="29" as="geometry">
            <mxRectangle width="30" height="29" as="alternateBounds" />
          </mxGeometry>
        </mxCell>
        <mxCell id="xOh4gRkhBfYzAbslTxhH-48" value="code_produit                    int" style="shape=partialRectangle;connectable=0;fillColor=none;top=0;left=0;bottom=0;right=0;align=left;spacingLeft=6;overflow=hidden;strokeWidth=1;fontSize=10;" vertex="1" parent="xOh4gRkhBfYzAbslTxhH-46">
          <mxGeometry x="30" width="140" height="29" as="geometry">
            <mxRectangle width="140" height="29" as="alternateBounds" />
          </mxGeometry>
        </mxCell>
        <mxCell id="xOh4gRkhBfYzAbslTxhH-121" value="" style="shape=tableRow;horizontal=0;startSize=0;swimlaneHead=0;swimlaneBody=0;fillColor=none;collapsible=0;dropTarget=0;points=[[0,0.5],[1,0.5]];portConstraint=eastwest;top=0;left=0;right=0;bottom=0;strokeWidth=1;fontSize=10;" vertex="1" parent="xOh4gRkhBfYzAbslTxhH-27">
          <mxGeometry y="236" width="170" height="29" as="geometry" />
        </mxCell>
        <mxCell id="xOh4gRkhBfYzAbslTxhH-122" value="" style="shape=partialRectangle;connectable=0;fillColor=none;top=0;left=0;bottom=0;right=0;editable=1;overflow=hidden;strokeWidth=1;fontSize=10;" vertex="1" parent="xOh4gRkhBfYzAbslTxhH-121">
          <mxGeometry width="30" height="29" as="geometry">
            <mxRectangle width="30" height="29" as="alternateBounds" />
          </mxGeometry>
        </mxCell>
        <mxCell id="xOh4gRkhBfYzAbslTxhH-123" value="url_photo                  varchar" style="shape=partialRectangle;connectable=0;fillColor=none;top=0;left=0;bottom=0;right=0;align=left;spacingLeft=6;overflow=hidden;strokeWidth=1;fontSize=10;" vertex="1" parent="xOh4gRkhBfYzAbslTxhH-121">
          <mxGeometry x="30" width="140" height="29" as="geometry">
            <mxRectangle width="140" height="29" as="alternateBounds" />
          </mxGeometry>
        </mxCell>
        <mxCell id="xOh4gRkhBfYzAbslTxhH-49" value="categorie" style="shape=table;startSize=30;container=1;collapsible=1;childLayout=tableLayout;fixedRows=1;rowLines=0;fontStyle=1;align=center;resizeLast=1;strokeWidth=1;fontSize=10;" vertex="1" parent="1">
          <mxGeometry x="620" y="510" width="170" height="207" as="geometry" />
        </mxCell>
        <mxCell id="xOh4gRkhBfYzAbslTxhH-50" value="" style="shape=tableRow;horizontal=0;startSize=0;swimlaneHead=0;swimlaneBody=0;fillColor=none;collapsible=0;dropTarget=0;points=[[0,0.5],[1,0.5]];portConstraint=eastwest;top=0;left=0;right=0;bottom=1;strokeWidth=1;fontSize=10;" vertex="1" parent="xOh4gRkhBfYzAbslTxhH-49">
          <mxGeometry y="30" width="170" height="30" as="geometry" />
        </mxCell>
        <mxCell id="xOh4gRkhBfYzAbslTxhH-51" value="PK" style="shape=partialRectangle;connectable=0;fillColor=none;top=0;left=0;bottom=0;right=0;fontStyle=1;overflow=hidden;strokeWidth=1;fontSize=10;" vertex="1" parent="xOh4gRkhBfYzAbslTxhH-50">
          <mxGeometry width="30" height="30" as="geometry">
            <mxRectangle width="30" height="30" as="alternateBounds" />
          </mxGeometry>
        </mxCell>
        <mxCell id="xOh4gRkhBfYzAbslTxhH-52" value="id" style="shape=partialRectangle;connectable=0;fillColor=none;top=0;left=0;bottom=0;right=0;align=left;spacingLeft=6;fontStyle=5;overflow=hidden;strokeWidth=1;fontSize=10;" vertex="1" parent="xOh4gRkhBfYzAbslTxhH-50">
          <mxGeometry x="30" width="140" height="30" as="geometry">
            <mxRectangle width="140" height="30" as="alternateBounds" />
          </mxGeometry>
        </mxCell>
        <mxCell id="xOh4gRkhBfYzAbslTxhH-53" value="" style="shape=tableRow;horizontal=0;startSize=0;swimlaneHead=0;swimlaneBody=0;fillColor=none;collapsible=0;dropTarget=0;points=[[0,0.5],[1,0.5]];portConstraint=eastwest;top=0;left=0;right=0;bottom=0;strokeWidth=1;fontSize=10;" vertex="1" parent="xOh4gRkhBfYzAbslTxhH-49">
          <mxGeometry y="60" width="170" height="30" as="geometry" />
        </mxCell>
        <mxCell id="xOh4gRkhBfYzAbslTxhH-54" value="" style="shape=partialRectangle;connectable=0;fillColor=none;top=0;left=0;bottom=0;right=0;editable=1;overflow=hidden;strokeWidth=1;fontSize=10;" vertex="1" parent="xOh4gRkhBfYzAbslTxhH-53">
          <mxGeometry width="30" height="30" as="geometry">
            <mxRectangle width="30" height="30" as="alternateBounds" />
          </mxGeometry>
        </mxCell>
        <mxCell id="xOh4gRkhBfYzAbslTxhH-55" value="Nom                         varchar" style="shape=partialRectangle;connectable=0;fillColor=none;top=0;left=0;bottom=0;right=0;align=left;spacingLeft=6;overflow=hidden;fontSize=10;strokeWidth=1;" vertex="1" parent="xOh4gRkhBfYzAbslTxhH-53">
          <mxGeometry x="30" width="140" height="30" as="geometry">
            <mxRectangle width="140" height="30" as="alternateBounds" />
          </mxGeometry>
        </mxCell>
        <mxCell id="xOh4gRkhBfYzAbslTxhH-56" value="" style="shape=tableRow;horizontal=0;startSize=0;swimlaneHead=0;swimlaneBody=0;fillColor=none;collapsible=0;dropTarget=0;points=[[0,0.5],[1,0.5]];portConstraint=eastwest;top=0;left=0;right=0;bottom=0;strokeWidth=1;fontSize=10;" vertex="1" parent="xOh4gRkhBfYzAbslTxhH-49">
          <mxGeometry y="90" width="170" height="30" as="geometry" />
        </mxCell>
        <mxCell id="xOh4gRkhBfYzAbslTxhH-57" value="" style="shape=partialRectangle;connectable=0;fillColor=none;top=0;left=0;bottom=0;right=0;editable=1;overflow=hidden;strokeWidth=1;fontSize=10;" vertex="1" parent="xOh4gRkhBfYzAbslTxhH-56">
          <mxGeometry width="30" height="30" as="geometry">
            <mxRectangle width="30" height="30" as="alternateBounds" />
          </mxGeometry>
        </mxCell>
        <mxCell id="xOh4gRkhBfYzAbslTxhH-58" value="Description              varchar" style="shape=partialRectangle;connectable=0;fillColor=none;top=0;left=0;bottom=0;right=0;align=left;spacingLeft=6;overflow=hidden;strokeWidth=1;fontSize=10;" vertex="1" parent="xOh4gRkhBfYzAbslTxhH-56">
          <mxGeometry x="30" width="140" height="30" as="geometry">
            <mxRectangle width="140" height="30" as="alternateBounds" />
          </mxGeometry>
        </mxCell>
        <mxCell id="xOh4gRkhBfYzAbslTxhH-65" value="" style="shape=tableRow;horizontal=0;startSize=0;swimlaneHead=0;swimlaneBody=0;fillColor=none;collapsible=0;dropTarget=0;points=[[0,0.5],[1,0.5]];portConstraint=eastwest;top=0;left=0;right=0;bottom=0;strokeWidth=1;fontSize=10;" vertex="1" parent="xOh4gRkhBfYzAbslTxhH-49">
          <mxGeometry y="120" width="170" height="29" as="geometry" />
        </mxCell>
        <mxCell id="xOh4gRkhBfYzAbslTxhH-66" value="" style="shape=partialRectangle;connectable=0;fillColor=none;top=0;left=0;bottom=0;right=0;editable=1;overflow=hidden;strokeWidth=1;fontSize=10;" vertex="1" parent="xOh4gRkhBfYzAbslTxhH-65">
          <mxGeometry width="30" height="29" as="geometry">
            <mxRectangle width="30" height="29" as="alternateBounds" />
          </mxGeometry>
        </mxCell>
        <mxCell id="xOh4gRkhBfYzAbslTxhH-67" value="creation_date        datetime" style="shape=partialRectangle;connectable=0;fillColor=none;top=0;left=0;bottom=0;right=0;align=left;spacingLeft=6;overflow=hidden;strokeWidth=1;fontSize=10;" vertex="1" parent="xOh4gRkhBfYzAbslTxhH-65">
          <mxGeometry x="30" width="140" height="29" as="geometry">
            <mxRectangle width="140" height="29" as="alternateBounds" />
          </mxGeometry>
        </mxCell>
        <mxCell id="xOh4gRkhBfYzAbslTxhH-68" value="" style="shape=tableRow;horizontal=0;startSize=0;swimlaneHead=0;swimlaneBody=0;fillColor=none;collapsible=0;dropTarget=0;points=[[0,0.5],[1,0.5]];portConstraint=eastwest;top=0;left=0;right=0;bottom=0;strokeWidth=1;fontSize=10;" vertex="1" parent="xOh4gRkhBfYzAbslTxhH-49">
          <mxGeometry y="149" width="170" height="29" as="geometry" />
        </mxCell>
        <mxCell id="xOh4gRkhBfYzAbslTxhH-69" value="" style="shape=partialRectangle;connectable=0;fillColor=none;top=0;left=0;bottom=0;right=0;editable=1;overflow=hidden;strokeWidth=1;fontSize=10;" vertex="1" parent="xOh4gRkhBfYzAbslTxhH-68">
          <mxGeometry width="30" height="29" as="geometry">
            <mxRectangle width="30" height="29" as="alternateBounds" />
          </mxGeometry>
        </mxCell>
        <mxCell id="xOh4gRkhBfYzAbslTxhH-70" value="last_modit_dat        datetime" style="shape=partialRectangle;connectable=0;fillColor=none;top=0;left=0;bottom=0;right=0;align=left;spacingLeft=6;overflow=hidden;strokeWidth=1;fontSize=10;" vertex="1" parent="xOh4gRkhBfYzAbslTxhH-68">
          <mxGeometry x="30" width="140" height="29" as="geometry">
            <mxRectangle width="140" height="29" as="alternateBounds" />
          </mxGeometry>
        </mxCell>
        <mxCell id="xOh4gRkhBfYzAbslTxhH-124" value="" style="shape=tableRow;horizontal=0;startSize=0;swimlaneHead=0;swimlaneBody=0;fillColor=none;collapsible=0;dropTarget=0;points=[[0,0.5],[1,0.5]];portConstraint=eastwest;top=0;left=0;right=0;bottom=0;strokeWidth=1;fontSize=10;" vertex="1" parent="xOh4gRkhBfYzAbslTxhH-49">
          <mxGeometry y="178" width="170" height="29" as="geometry" />
        </mxCell>
        <mxCell id="xOh4gRkhBfYzAbslTxhH-125" value="" style="shape=partialRectangle;connectable=0;fillColor=none;top=0;left=0;bottom=0;right=0;editable=1;overflow=hidden;strokeWidth=1;fontSize=10;" vertex="1" parent="xOh4gRkhBfYzAbslTxhH-124">
          <mxGeometry width="30" height="29" as="geometry">
            <mxRectangle width="30" height="29" as="alternateBounds" />
          </mxGeometry>
        </mxCell>
        <mxCell id="xOh4gRkhBfYzAbslTxhH-126" value="url_photo                  varchar" style="shape=partialRectangle;connectable=0;fillColor=none;top=0;left=0;bottom=0;right=0;align=left;spacingLeft=6;overflow=hidden;strokeWidth=1;fontSize=10;" vertex="1" parent="xOh4gRkhBfYzAbslTxhH-124">
          <mxGeometry x="30" width="140" height="29" as="geometry">
            <mxRectangle width="140" height="29" as="alternateBounds" />
          </mxGeometry>
        </mxCell>
        <mxCell id="xOh4gRkhBfYzAbslTxhH-71" value="app_user" style="shape=table;startSize=30;container=1;collapsible=1;childLayout=tableLayout;fixedRows=1;rowLines=0;fontStyle=1;align=center;resizeLast=1;strokeWidth=1;fontSize=10;" vertex="1" parent="1">
          <mxGeometry x="320" y="800" width="170" height="265" as="geometry" />
        </mxCell>
        <mxCell id="xOh4gRkhBfYzAbslTxhH-72" value="" style="shape=tableRow;horizontal=0;startSize=0;swimlaneHead=0;swimlaneBody=0;fillColor=none;collapsible=0;dropTarget=0;points=[[0,0.5],[1,0.5]];portConstraint=eastwest;top=0;left=0;right=0;bottom=1;strokeWidth=1;fontSize=10;" vertex="1" parent="xOh4gRkhBfYzAbslTxhH-71">
          <mxGeometry y="30" width="170" height="30" as="geometry" />
        </mxCell>
        <mxCell id="xOh4gRkhBfYzAbslTxhH-73" value="PK" style="shape=partialRectangle;connectable=0;fillColor=none;top=0;left=0;bottom=0;right=0;fontStyle=1;overflow=hidden;strokeWidth=1;fontSize=10;" vertex="1" parent="xOh4gRkhBfYzAbslTxhH-72">
          <mxGeometry width="30" height="30" as="geometry">
            <mxRectangle width="30" height="30" as="alternateBounds" />
          </mxGeometry>
        </mxCell>
        <mxCell id="xOh4gRkhBfYzAbslTxhH-74" value="id" style="shape=partialRectangle;connectable=0;fillColor=none;top=0;left=0;bottom=0;right=0;align=left;spacingLeft=6;fontStyle=5;overflow=hidden;strokeWidth=1;fontSize=10;" vertex="1" parent="xOh4gRkhBfYzAbslTxhH-72">
          <mxGeometry x="30" width="140" height="30" as="geometry">
            <mxRectangle width="140" height="30" as="alternateBounds" />
          </mxGeometry>
        </mxCell>
        <mxCell id="xOh4gRkhBfYzAbslTxhH-75" value="" style="shape=tableRow;horizontal=0;startSize=0;swimlaneHead=0;swimlaneBody=0;fillColor=none;collapsible=0;dropTarget=0;points=[[0,0.5],[1,0.5]];portConstraint=eastwest;top=0;left=0;right=0;bottom=0;strokeWidth=1;fontSize=10;" vertex="1" parent="xOh4gRkhBfYzAbslTxhH-71">
          <mxGeometry y="60" width="170" height="30" as="geometry" />
        </mxCell>
        <mxCell id="xOh4gRkhBfYzAbslTxhH-76" value="" style="shape=partialRectangle;connectable=0;fillColor=none;top=0;left=0;bottom=0;right=0;editable=1;overflow=hidden;strokeWidth=1;fontSize=10;" vertex="1" parent="xOh4gRkhBfYzAbslTxhH-75">
          <mxGeometry width="30" height="30" as="geometry">
            <mxRectangle width="30" height="30" as="alternateBounds" />
          </mxGeometry>
        </mxCell>
        <mxCell id="xOh4gRkhBfYzAbslTxhH-77" value="Nom                         varchar" style="shape=partialRectangle;connectable=0;fillColor=none;top=0;left=0;bottom=0;right=0;align=left;spacingLeft=6;overflow=hidden;strokeWidth=1;fontSize=10;" vertex="1" parent="xOh4gRkhBfYzAbslTxhH-75">
          <mxGeometry x="30" width="140" height="30" as="geometry">
            <mxRectangle width="140" height="30" as="alternateBounds" />
          </mxGeometry>
        </mxCell>
        <mxCell id="xOh4gRkhBfYzAbslTxhH-78" value="" style="shape=tableRow;horizontal=0;startSize=0;swimlaneHead=0;swimlaneBody=0;fillColor=none;collapsible=0;dropTarget=0;points=[[0,0.5],[1,0.5]];portConstraint=eastwest;top=0;left=0;right=0;bottom=0;strokeWidth=1;fontSize=10;" vertex="1" parent="xOh4gRkhBfYzAbslTxhH-71">
          <mxGeometry y="90" width="170" height="30" as="geometry" />
        </mxCell>
        <mxCell id="xOh4gRkhBfYzAbslTxhH-79" value="" style="shape=partialRectangle;connectable=0;fillColor=none;top=0;left=0;bottom=0;right=0;editable=1;overflow=hidden;strokeWidth=1;fontSize=10;" vertex="1" parent="xOh4gRkhBfYzAbslTxhH-78">
          <mxGeometry width="30" height="30" as="geometry">
            <mxRectangle width="30" height="30" as="alternateBounds" />
          </mxGeometry>
        </mxCell>
        <mxCell id="xOh4gRkhBfYzAbslTxhH-80" value="Prenom                    varchar" style="shape=partialRectangle;connectable=0;fillColor=none;top=0;left=0;bottom=0;right=0;align=left;spacingLeft=6;overflow=hidden;strokeWidth=1;fontSize=10;" vertex="1" parent="xOh4gRkhBfYzAbslTxhH-78">
          <mxGeometry x="30" width="140" height="30" as="geometry">
            <mxRectangle width="140" height="30" as="alternateBounds" />
          </mxGeometry>
        </mxCell>
        <mxCell id="xOh4gRkhBfYzAbslTxhH-81" value="" style="shape=tableRow;horizontal=0;startSize=0;swimlaneHead=0;swimlaneBody=0;fillColor=none;collapsible=0;dropTarget=0;points=[[0,0.5],[1,0.5]];portConstraint=eastwest;top=0;left=0;right=0;bottom=0;strokeWidth=1;fontSize=10;" vertex="1" parent="xOh4gRkhBfYzAbslTxhH-71">
          <mxGeometry y="120" width="170" height="29" as="geometry" />
        </mxCell>
        <mxCell id="xOh4gRkhBfYzAbslTxhH-82" value="" style="shape=partialRectangle;connectable=0;fillColor=none;top=0;left=0;bottom=0;right=0;editable=1;overflow=hidden;strokeWidth=1;fontSize=10;" vertex="1" parent="xOh4gRkhBfYzAbslTxhH-81">
          <mxGeometry width="30" height="29" as="geometry">
            <mxRectangle width="30" height="29" as="alternateBounds" />
          </mxGeometry>
        </mxCell>
        <mxCell id="xOh4gRkhBfYzAbslTxhH-83" value="email                        varchar" style="shape=partialRectangle;connectable=0;fillColor=none;top=0;left=0;bottom=0;right=0;align=left;spacingLeft=6;overflow=hidden;strokeWidth=1;fontSize=10;" vertex="1" parent="xOh4gRkhBfYzAbslTxhH-81">
          <mxGeometry x="30" width="140" height="29" as="geometry">
            <mxRectangle width="140" height="29" as="alternateBounds" />
          </mxGeometry>
        </mxCell>
        <mxCell id="xOh4gRkhBfYzAbslTxhH-84" value="" style="shape=tableRow;horizontal=0;startSize=0;swimlaneHead=0;swimlaneBody=0;fillColor=none;collapsible=0;dropTarget=0;points=[[0,0.5],[1,0.5]];portConstraint=eastwest;top=0;left=0;right=0;bottom=0;strokeWidth=1;fontSize=10;" vertex="1" parent="xOh4gRkhBfYzAbslTxhH-71">
          <mxGeometry y="149" width="170" height="29" as="geometry" />
        </mxCell>
        <mxCell id="xOh4gRkhBfYzAbslTxhH-85" value="" style="shape=partialRectangle;connectable=0;fillColor=none;top=0;left=0;bottom=0;right=0;editable=1;overflow=hidden;strokeWidth=1;fontSize=10;" vertex="1" parent="xOh4gRkhBfYzAbslTxhH-84">
          <mxGeometry width="30" height="29" as="geometry">
            <mxRectangle width="30" height="29" as="alternateBounds" />
          </mxGeometry>
        </mxCell>
        <mxCell id="xOh4gRkhBfYzAbslTxhH-86" value="mdp                          varchar" style="shape=partialRectangle;connectable=0;fillColor=none;top=0;left=0;bottom=0;right=0;align=left;spacingLeft=6;overflow=hidden;strokeWidth=1;fontSize=10;" vertex="1" parent="xOh4gRkhBfYzAbslTxhH-84">
          <mxGeometry x="30" width="140" height="29" as="geometry">
            <mxRectangle width="140" height="29" as="alternateBounds" />
          </mxGeometry>
        </mxCell>
        <mxCell id="xOh4gRkhBfYzAbslTxhH-87" value="" style="shape=tableRow;horizontal=0;startSize=0;swimlaneHead=0;swimlaneBody=0;fillColor=none;collapsible=0;dropTarget=0;points=[[0,0.5],[1,0.5]];portConstraint=eastwest;top=0;left=0;right=0;bottom=0;strokeWidth=1;fontSize=10;" vertex="1" parent="xOh4gRkhBfYzAbslTxhH-71">
          <mxGeometry y="178" width="170" height="29" as="geometry" />
        </mxCell>
        <mxCell id="xOh4gRkhBfYzAbslTxhH-88" value="" style="shape=partialRectangle;connectable=0;fillColor=none;top=0;left=0;bottom=0;right=0;editable=1;overflow=hidden;strokeWidth=1;fontSize=10;" vertex="1" parent="xOh4gRkhBfYzAbslTxhH-87">
          <mxGeometry width="30" height="29" as="geometry">
            <mxRectangle width="30" height="29" as="alternateBounds" />
          </mxGeometry>
        </mxCell>
        <mxCell id="xOh4gRkhBfYzAbslTxhH-89" value="creation_date          datetime" style="shape=partialRectangle;connectable=0;fillColor=none;top=0;left=0;bottom=0;right=0;align=left;spacingLeft=6;overflow=hidden;strokeWidth=1;fontSize=10;" vertex="1" parent="xOh4gRkhBfYzAbslTxhH-87">
          <mxGeometry x="30" width="140" height="29" as="geometry">
            <mxRectangle width="140" height="29" as="alternateBounds" />
          </mxGeometry>
        </mxCell>
        <mxCell id="xOh4gRkhBfYzAbslTxhH-90" value="" style="shape=tableRow;horizontal=0;startSize=0;swimlaneHead=0;swimlaneBody=0;fillColor=none;collapsible=0;dropTarget=0;points=[[0,0.5],[1,0.5]];portConstraint=eastwest;top=0;left=0;right=0;bottom=0;strokeWidth=1;fontSize=10;" vertex="1" parent="xOh4gRkhBfYzAbslTxhH-71">
          <mxGeometry y="207" width="170" height="29" as="geometry" />
        </mxCell>
        <mxCell id="xOh4gRkhBfYzAbslTxhH-91" value="" style="shape=partialRectangle;connectable=0;fillColor=none;top=0;left=0;bottom=0;right=0;editable=1;overflow=hidden;strokeWidth=1;fontSize=10;" vertex="1" parent="xOh4gRkhBfYzAbslTxhH-90">
          <mxGeometry width="30" height="29" as="geometry">
            <mxRectangle width="30" height="29" as="alternateBounds" />
          </mxGeometry>
        </mxCell>
        <mxCell id="xOh4gRkhBfYzAbslTxhH-92" value="last_modit_dat        datetime" style="shape=partialRectangle;connectable=0;fillColor=none;top=0;left=0;bottom=0;right=0;align=left;spacingLeft=6;overflow=hidden;strokeWidth=1;fontSize=10;" vertex="1" parent="xOh4gRkhBfYzAbslTxhH-90">
          <mxGeometry x="30" width="140" height="29" as="geometry">
            <mxRectangle width="140" height="29" as="alternateBounds" />
          </mxGeometry>
        </mxCell>
        <mxCell id="xOh4gRkhBfYzAbslTxhH-143" value="" style="shape=tableRow;horizontal=0;startSize=0;swimlaneHead=0;swimlaneBody=0;fillColor=none;collapsible=0;dropTarget=0;points=[[0,0.5],[1,0.5]];portConstraint=eastwest;top=0;left=0;right=0;bottom=0;strokeWidth=1;fontSize=10;" vertex="1" parent="xOh4gRkhBfYzAbslTxhH-71">
          <mxGeometry y="236" width="170" height="29" as="geometry" />
        </mxCell>
        <mxCell id="xOh4gRkhBfYzAbslTxhH-144" value="" style="shape=partialRectangle;connectable=0;fillColor=none;top=0;left=0;bottom=0;right=0;editable=1;overflow=hidden;strokeWidth=1;fontSize=10;" vertex="1" parent="xOh4gRkhBfYzAbslTxhH-143">
          <mxGeometry width="30" height="29" as="geometry">
            <mxRectangle width="30" height="29" as="alternateBounds" />
          </mxGeometry>
        </mxCell>
        <mxCell id="xOh4gRkhBfYzAbslTxhH-145" value="url_photo                  varchar" style="shape=partialRectangle;connectable=0;fillColor=none;top=0;left=0;bottom=0;right=0;align=left;spacingLeft=6;overflow=hidden;strokeWidth=1;fontSize=10;" vertex="1" parent="xOh4gRkhBfYzAbslTxhH-143">
          <mxGeometry x="30" width="140" height="29" as="geometry">
            <mxRectangle width="140" height="29" as="alternateBounds" />
          </mxGeometry>
        </mxCell>
        <mxCell id="xOh4gRkhBfYzAbslTxhH-93" value="app_rol" style="shape=table;startSize=30;container=1;collapsible=1;childLayout=tableLayout;fixedRows=1;rowLines=0;fontStyle=1;align=center;resizeLast=1;fontSize=10;" vertex="1" parent="1">
          <mxGeometry x="620" y="877" width="170" height="93" as="geometry" />
        </mxCell>
        <mxCell id="xOh4gRkhBfYzAbslTxhH-94" value="" style="shape=tableRow;horizontal=0;startSize=0;swimlaneHead=0;swimlaneBody=0;fillColor=none;collapsible=0;dropTarget=0;points=[[0,0.5],[1,0.5]];portConstraint=eastwest;top=0;left=0;right=0;bottom=1;strokeWidth=1;fontSize=10;" vertex="1" parent="xOh4gRkhBfYzAbslTxhH-93">
          <mxGeometry y="30" width="170" height="30" as="geometry" />
        </mxCell>
        <mxCell id="xOh4gRkhBfYzAbslTxhH-95" value="PK" style="shape=partialRectangle;connectable=0;fillColor=none;top=0;left=0;bottom=0;right=0;fontStyle=1;overflow=hidden;strokeWidth=1;fontSize=10;" vertex="1" parent="xOh4gRkhBfYzAbslTxhH-94">
          <mxGeometry width="30" height="30" as="geometry">
            <mxRectangle width="30" height="30" as="alternateBounds" />
          </mxGeometry>
        </mxCell>
        <mxCell id="xOh4gRkhBfYzAbslTxhH-96" value="id" style="shape=partialRectangle;connectable=0;fillColor=none;top=0;left=0;bottom=0;right=0;align=left;spacingLeft=6;fontStyle=5;overflow=hidden;strokeWidth=1;fontSize=10;" vertex="1" parent="xOh4gRkhBfYzAbslTxhH-94">
          <mxGeometry x="30" width="140" height="30" as="geometry">
            <mxRectangle width="140" height="30" as="alternateBounds" />
          </mxGeometry>
        </mxCell>
        <mxCell id="xOh4gRkhBfYzAbslTxhH-97" value="" style="shape=tableRow;horizontal=0;startSize=0;swimlaneHead=0;swimlaneBody=0;fillColor=none;collapsible=0;dropTarget=0;points=[[0,0.5],[1,0.5]];portConstraint=eastwest;top=0;left=0;right=0;bottom=0;strokeWidth=1;fontSize=10;" vertex="1" parent="xOh4gRkhBfYzAbslTxhH-93">
          <mxGeometry y="60" width="170" height="30" as="geometry" />
        </mxCell>
        <mxCell id="xOh4gRkhBfYzAbslTxhH-98" value="" style="shape=partialRectangle;connectable=0;fillColor=none;top=0;left=0;bottom=0;right=0;editable=1;overflow=hidden;strokeWidth=1;fontSize=10;" vertex="1" parent="xOh4gRkhBfYzAbslTxhH-97">
          <mxGeometry width="30" height="30" as="geometry">
            <mxRectangle width="30" height="30" as="alternateBounds" />
          </mxGeometry>
        </mxCell>
        <mxCell id="xOh4gRkhBfYzAbslTxhH-99" value="role_name        varchar(255)" style="shape=partialRectangle;connectable=0;fillColor=none;top=0;left=0;bottom=0;right=0;align=left;spacingLeft=6;overflow=hidden;strokeWidth=1;fontSize=10;" vertex="1" parent="xOh4gRkhBfYzAbslTxhH-97">
          <mxGeometry x="30" width="140" height="30" as="geometry">
            <mxRectangle width="140" height="30" as="alternateBounds" />
          </mxGeometry>
        </mxCell>
        <mxCell id="xOh4gRkhBfYzAbslTxhH-149" value="" style="edgeStyle=entityRelationEdgeStyle;fontSize=12;html=1;endArrow=ERoneToMany;rounded=0;entryX=-0.018;entryY=0.057;entryDx=0;entryDy=0;entryPerimeter=0;exitX=1.024;exitY=0.087;exitDx=0;exitDy=0;exitPerimeter=0;" edge="1" parent="1" source="xOh4gRkhBfYzAbslTxhH-2" target="xOh4gRkhBfYzAbslTxhH-27">
          <mxGeometry width="100" height="100" relative="1" as="geometry">
            <mxPoint x="230" y="560" as="sourcePoint" />
            <mxPoint x="340" y="530" as="targetPoint" />
          </mxGeometry>
        </mxCell>
        <mxCell id="xOh4gRkhBfYzAbslTxhH-150" value="" style="edgeStyle=entityRelationEdgeStyle;fontSize=12;html=1;endArrow=ERmany;startArrow=ERmany;rounded=0;exitX=1.029;exitY=0.057;exitDx=0;exitDy=0;exitPerimeter=0;entryX=-0.006;entryY=0.048;entryDx=0;entryDy=0;entryPerimeter=0;" edge="1" parent="1" source="xOh4gRkhBfYzAbslTxhH-27" target="xOh4gRkhBfYzAbslTxhH-49">
          <mxGeometry width="100" height="100" relative="1" as="geometry">
            <mxPoint x="560" y="590" as="sourcePoint" />
            <mxPoint x="660" y="490" as="targetPoint" />
          </mxGeometry>
        </mxCell>
        <mxCell id="xOh4gRkhBfYzAbslTxhH-152" value="" style="edgeStyle=entityRelationEdgeStyle;fontSize=12;html=1;endArrow=ERmandOne;startArrow=ERmandOne;rounded=0;entryX=-0.012;entryY=0.057;entryDx=0;entryDy=0;entryPerimeter=0;" edge="1" parent="1" target="xOh4gRkhBfYzAbslTxhH-71">
          <mxGeometry width="100" height="100" relative="1" as="geometry">
            <mxPoint x="220" y="750" as="sourcePoint" />
            <mxPoint x="320" y="650" as="targetPoint" />
          </mxGeometry>
        </mxCell>
        <mxCell id="xOh4gRkhBfYzAbslTxhH-153" value="" style="edgeStyle=entityRelationEdgeStyle;fontSize=12;html=1;endArrow=ERmandOne;startArrow=ERmandOne;rounded=0;entryX=0;entryY=0.25;entryDx=0;entryDy=0;exitX=1.018;exitY=0.053;exitDx=0;exitDy=0;exitPerimeter=0;" edge="1" parent="1" source="xOh4gRkhBfYzAbslTxhH-71" target="xOh4gRkhBfYzAbslTxhH-93">
          <mxGeometry width="100" height="100" relative="1" as="geometry">
            <mxPoint x="350" y="840" as="sourcePoint" />
            <mxPoint x="450" y="740" as="targetPoint" />
          </mxGeometry>
        </mxCell>
        <mxCell id="xOh4gRkhBfYzAbslTxhH-154" value="" style="shape=folder;fontStyle=1;spacingTop=10;tabWidth=40;tabHeight=14;tabPosition=left;html=1;" vertex="1" parent="1">
          <mxGeometry x="-800" width="850" height="590" as="geometry" />
        </mxCell>
        <mxCell id="xOh4gRkhBfYzAbslTxhH-155" value="Photo" style="swimlane;fontStyle=0;align=center;verticalAlign=top;childLayout=stackLayout;horizontal=1;startSize=26;horizontalStack=0;resizeParent=1;resizeLast=0;collapsible=1;marginBottom=0;rounded=0;shadow=0;strokeWidth=1;" vertex="1" parent="1">
          <mxGeometry x="-770" y="50" width="160" height="280" as="geometry">
            <mxRectangle x="550" y="140" width="160" height="26" as="alternateBounds" />
          </mxGeometry>
        </mxCell>
        <mxCell id="xOh4gRkhBfYzAbslTxhH-156" value="+id" style="text;align=left;verticalAlign=top;spacingLeft=4;spacingRight=4;overflow=hidden;rotatable=0;points=[[0,0.5],[1,0.5]];portConstraint=eastwest;" vertex="1" parent="xOh4gRkhBfYzAbslTxhH-155">
          <mxGeometry y="26" width="160" height="26" as="geometry" />
        </mxCell>
        <mxCell id="xOh4gRkhBfYzAbslTxhH-157" value="+nom" style="text;align=left;verticalAlign=top;spacingLeft=4;spacingRight=4;overflow=hidden;rotatable=0;points=[[0,0.5],[1,0.5]];portConstraint=eastwest;" vertex="1" parent="xOh4gRkhBfYzAbslTxhH-155">
          <mxGeometry y="52" width="160" height="26" as="geometry" />
        </mxCell>
        <mxCell id="xOh4gRkhBfYzAbslTxhH-158" value="+description" style="text;align=left;verticalAlign=top;spacingLeft=4;spacingRight=4;overflow=hidden;rotatable=0;points=[[0,0.5],[1,0.5]];portConstraint=eastwest;rounded=0;shadow=0;html=0;" vertex="1" parent="xOh4gRkhBfYzAbslTxhH-155">
          <mxGeometry y="78" width="160" height="26" as="geometry" />
        </mxCell>
        <mxCell id="xOh4gRkhBfYzAbslTxhH-159" value="+creation_data" style="text;align=left;verticalAlign=top;spacingLeft=4;spacingRight=4;overflow=hidden;rotatable=0;points=[[0,0.5],[1,0.5]];portConstraint=eastwest;rounded=0;shadow=0;html=0;" vertex="1" parent="xOh4gRkhBfYzAbslTxhH-155">
          <mxGeometry y="104" width="160" height="26" as="geometry" />
        </mxCell>
        <mxCell id="xOh4gRkhBfYzAbslTxhH-160" value="+cacher" style="text;align=left;verticalAlign=top;spacingLeft=4;spacingRight=4;overflow=hidden;rotatable=0;points=[[0,0.5],[1,0.5]];portConstraint=eastwest;rounded=0;shadow=0;html=0;" vertex="1" parent="xOh4gRkhBfYzAbslTxhH-155">
          <mxGeometry y="130" width="160" height="26" as="geometry" />
        </mxCell>
        <mxCell id="xOh4gRkhBfYzAbslTxhH-161" value="+priver" style="text;align=left;verticalAlign=top;spacingLeft=4;spacingRight=4;overflow=hidden;rotatable=0;points=[[0,0.5],[1,0.5]];portConstraint=eastwest;" vertex="1" parent="xOh4gRkhBfYzAbslTxhH-155">
          <mxGeometry y="156" width="160" height="26" as="geometry" />
        </mxCell>
        <mxCell id="xOh4gRkhBfYzAbslTxhH-162" value="+last_modified_data" style="text;align=left;verticalAlign=top;spacingLeft=4;spacingRight=4;overflow=hidden;rotatable=0;points=[[0,0.5],[1,0.5]];portConstraint=eastwest;rounded=0;shadow=0;html=0;" vertex="1" parent="xOh4gRkhBfYzAbslTxhH-155">
          <mxGeometry y="182" width="160" height="26" as="geometry" />
        </mxCell>
        <mxCell id="xOh4gRkhBfYzAbslTxhH-163" value="+user" style="text;align=left;verticalAlign=top;spacingLeft=4;spacingRight=4;overflow=hidden;rotatable=0;points=[[0,0.5],[1,0.5]];portConstraint=eastwest;rounded=0;shadow=0;html=0;" vertex="1" parent="xOh4gRkhBfYzAbslTxhH-155">
          <mxGeometry y="208" width="160" height="26" as="geometry" />
        </mxCell>
        <mxCell id="xOh4gRkhBfYzAbslTxhH-164" value="+url_photo" style="text;align=left;verticalAlign=top;spacingLeft=4;spacingRight=4;overflow=hidden;rotatable=0;points=[[0,0.5],[1,0.5]];portConstraint=eastwest;rounded=0;shadow=0;html=0;" vertex="1" parent="xOh4gRkhBfYzAbslTxhH-155">
          <mxGeometry y="234" width="160" height="26" as="geometry" />
        </mxCell>
        <mxCell id="xOh4gRkhBfYzAbslTxhH-165" value="" style="line;html=1;strokeWidth=1;align=left;verticalAlign=middle;spacingTop=-1;spacingLeft=3;spacingRight=3;rotatable=0;labelPosition=right;points=[];portConstraint=eastwest;" vertex="1" parent="xOh4gRkhBfYzAbslTxhH-155">
          <mxGeometry y="260" width="160" height="8" as="geometry" />
        </mxCell>
        <mxCell id="xOh4gRkhBfYzAbslTxhH-166" value="Role" style="swimlane;fontStyle=0;align=center;verticalAlign=top;childLayout=stackLayout;horizontal=1;startSize=26;horizontalStack=0;resizeParent=1;resizeLast=0;collapsible=1;marginBottom=0;rounded=0;shadow=0;strokeWidth=1;" vertex="1" parent="1">
          <mxGeometry x="-475" y="72" width="160" height="94" as="geometry">
            <mxRectangle x="130" y="380" width="160" height="26" as="alternateBounds" />
          </mxGeometry>
        </mxCell>
        <mxCell id="xOh4gRkhBfYzAbslTxhH-167" value="+id_role" style="text;align=left;verticalAlign=top;spacingLeft=4;spacingRight=4;overflow=hidden;rotatable=0;points=[[0,0.5],[1,0.5]];portConstraint=eastwest;" vertex="1" parent="xOh4gRkhBfYzAbslTxhH-166">
          <mxGeometry y="26" width="160" height="26" as="geometry" />
        </mxCell>
        <mxCell id="xOh4gRkhBfYzAbslTxhH-168" value="+role_name" style="text;align=left;verticalAlign=top;spacingLeft=4;spacingRight=4;overflow=hidden;rotatable=0;points=[[0,0.5],[1,0.5]];portConstraint=eastwest;rounded=0;shadow=0;html=0;" vertex="1" parent="xOh4gRkhBfYzAbslTxhH-166">
          <mxGeometry y="52" width="160" height="26" as="geometry" />
        </mxCell>
        <mxCell id="xOh4gRkhBfYzAbslTxhH-169" value="" style="line;html=1;strokeWidth=1;align=left;verticalAlign=middle;spacingTop=-1;spacingLeft=3;spacingRight=3;rotatable=0;labelPosition=right;points=[];portConstraint=eastwest;" vertex="1" parent="xOh4gRkhBfYzAbslTxhH-166">
          <mxGeometry y="78" width="160" height="8" as="geometry" />
        </mxCell>
        <mxCell id="xOh4gRkhBfYzAbslTxhH-170" value="User" style="swimlane;fontStyle=2;align=center;verticalAlign=top;childLayout=stackLayout;horizontal=1;startSize=26;horizontalStack=0;resizeParent=1;resizeLast=0;collapsible=1;marginBottom=0;rounded=0;shadow=0;strokeWidth=1;" vertex="1" parent="1">
          <mxGeometry x="-485" y="292" width="160" height="250" as="geometry">
            <mxRectangle x="230" y="140" width="160" height="26" as="alternateBounds" />
          </mxGeometry>
        </mxCell>
        <mxCell id="xOh4gRkhBfYzAbslTxhH-171" value="+id" style="text;align=left;verticalAlign=top;spacingLeft=4;spacingRight=4;overflow=hidden;rotatable=0;points=[[0,0.5],[1,0.5]];portConstraint=eastwest;" vertex="1" parent="xOh4gRkhBfYzAbslTxhH-170">
          <mxGeometry y="26" width="160" height="26" as="geometry" />
        </mxCell>
        <mxCell id="xOh4gRkhBfYzAbslTxhH-172" value="+nom" style="text;align=left;verticalAlign=top;spacingLeft=4;spacingRight=4;overflow=hidden;rotatable=0;points=[[0,0.5],[1,0.5]];portConstraint=eastwest;rounded=0;shadow=0;html=0;" vertex="1" parent="xOh4gRkhBfYzAbslTxhH-170">
          <mxGeometry y="52" width="160" height="26" as="geometry" />
        </mxCell>
        <mxCell id="xOh4gRkhBfYzAbslTxhH-173" value="+prenom" style="text;align=left;verticalAlign=top;spacingLeft=4;spacingRight=4;overflow=hidden;rotatable=0;points=[[0,0.5],[1,0.5]];portConstraint=eastwest;" vertex="1" parent="xOh4gRkhBfYzAbslTxhH-170">
          <mxGeometry y="78" width="160" height="26" as="geometry" />
        </mxCell>
        <mxCell id="xOh4gRkhBfYzAbslTxhH-174" value="+email " style="text;align=left;verticalAlign=top;spacingLeft=4;spacingRight=4;overflow=hidden;rotatable=0;points=[[0,0.5],[1,0.5]];portConstraint=eastwest;rounded=0;shadow=0;html=0;" vertex="1" parent="xOh4gRkhBfYzAbslTxhH-170">
          <mxGeometry y="104" width="160" height="26" as="geometry" />
        </mxCell>
        <mxCell id="xOh4gRkhBfYzAbslTxhH-175" value="+mdp" style="text;align=left;verticalAlign=top;spacingLeft=4;spacingRight=4;overflow=hidden;rotatable=0;points=[[0,0.5],[1,0.5]];portConstraint=eastwest;rounded=0;shadow=0;html=0;" vertex="1" parent="xOh4gRkhBfYzAbslTxhH-170">
          <mxGeometry y="130" width="160" height="26" as="geometry" />
        </mxCell>
        <mxCell id="xOh4gRkhBfYzAbslTxhH-176" value="+creation_data" style="text;align=left;verticalAlign=top;spacingLeft=4;spacingRight=4;overflow=hidden;rotatable=0;points=[[0,0.5],[1,0.5]];portConstraint=eastwest;rounded=0;shadow=0;html=0;" vertex="1" parent="xOh4gRkhBfYzAbslTxhH-170">
          <mxGeometry y="156" width="160" height="26" as="geometry" />
        </mxCell>
        <mxCell id="xOh4gRkhBfYzAbslTxhH-177" value="+description" style="text;align=left;verticalAlign=top;spacingLeft=4;spacingRight=4;overflow=hidden;rotatable=0;points=[[0,0.5],[1,0.5]];portConstraint=eastwest;rounded=0;shadow=0;html=0;" vertex="1" parent="xOh4gRkhBfYzAbslTxhH-170">
          <mxGeometry y="182" width="160" height="26" as="geometry" />
        </mxCell>
        <mxCell id="xOh4gRkhBfYzAbslTxhH-178" value="+url_photo" style="text;align=left;verticalAlign=top;spacingLeft=4;spacingRight=4;overflow=hidden;rotatable=0;points=[[0,0.5],[1,0.5]];portConstraint=eastwest;rounded=0;shadow=0;html=0;" vertex="1" parent="xOh4gRkhBfYzAbslTxhH-170">
          <mxGeometry y="208" width="160" height="26" as="geometry" />
        </mxCell>
        <mxCell id="xOh4gRkhBfYzAbslTxhH-179" value="" style="line;html=1;strokeWidth=1;align=left;verticalAlign=middle;spacingTop=-1;spacingLeft=3;spacingRight=3;rotatable=0;labelPosition=right;points=[];portConstraint=eastwest;" vertex="1" parent="xOh4gRkhBfYzAbslTxhH-170">
          <mxGeometry y="234" width="160" height="4" as="geometry" />
        </mxCell>
        <mxCell id="xOh4gRkhBfYzAbslTxhH-180" value="Video" style="swimlane;fontStyle=0;align=center;verticalAlign=top;childLayout=stackLayout;horizontal=1;startSize=26;horizontalStack=0;resizeParent=1;resizeLast=0;collapsible=1;marginBottom=0;rounded=0;shadow=0;strokeWidth=1;" vertex="1" parent="1">
          <mxGeometry x="-165" y="172" width="160" height="280" as="geometry">
            <mxRectangle x="550" y="140" width="160" height="26" as="alternateBounds" />
          </mxGeometry>
        </mxCell>
        <mxCell id="xOh4gRkhBfYzAbslTxhH-181" value="+id" style="text;align=left;verticalAlign=top;spacingLeft=4;spacingRight=4;overflow=hidden;rotatable=0;points=[[0,0.5],[1,0.5]];portConstraint=eastwest;" vertex="1" parent="xOh4gRkhBfYzAbslTxhH-180">
          <mxGeometry y="26" width="160" height="26" as="geometry" />
        </mxCell>
        <mxCell id="xOh4gRkhBfYzAbslTxhH-182" value="+nom" style="text;align=left;verticalAlign=top;spacingLeft=4;spacingRight=4;overflow=hidden;rotatable=0;points=[[0,0.5],[1,0.5]];portConstraint=eastwest;" vertex="1" parent="xOh4gRkhBfYzAbslTxhH-180">
          <mxGeometry y="52" width="160" height="26" as="geometry" />
        </mxCell>
        <mxCell id="xOh4gRkhBfYzAbslTxhH-183" value="+description" style="text;align=left;verticalAlign=top;spacingLeft=4;spacingRight=4;overflow=hidden;rotatable=0;points=[[0,0.5],[1,0.5]];portConstraint=eastwest;rounded=0;shadow=0;html=0;" vertex="1" parent="xOh4gRkhBfYzAbslTxhH-180">
          <mxGeometry y="78" width="160" height="26" as="geometry" />
        </mxCell>
        <mxCell id="xOh4gRkhBfYzAbslTxhH-184" value="+creation_data" style="text;align=left;verticalAlign=top;spacingLeft=4;spacingRight=4;overflow=hidden;rotatable=0;points=[[0,0.5],[1,0.5]];portConstraint=eastwest;rounded=0;shadow=0;html=0;" vertex="1" parent="xOh4gRkhBfYzAbslTxhH-180">
          <mxGeometry y="104" width="160" height="26" as="geometry" />
        </mxCell>
        <mxCell id="xOh4gRkhBfYzAbslTxhH-185" value="+cacher" style="text;align=left;verticalAlign=top;spacingLeft=4;spacingRight=4;overflow=hidden;rotatable=0;points=[[0,0.5],[1,0.5]];portConstraint=eastwest;rounded=0;shadow=0;html=0;" vertex="1" parent="xOh4gRkhBfYzAbslTxhH-180">
          <mxGeometry y="130" width="160" height="26" as="geometry" />
        </mxCell>
        <mxCell id="xOh4gRkhBfYzAbslTxhH-186" value="+priver" style="text;align=left;verticalAlign=top;spacingLeft=4;spacingRight=4;overflow=hidden;rotatable=0;points=[[0,0.5],[1,0.5]];portConstraint=eastwest;" vertex="1" parent="xOh4gRkhBfYzAbslTxhH-180">
          <mxGeometry y="156" width="160" height="26" as="geometry" />
        </mxCell>
        <mxCell id="xOh4gRkhBfYzAbslTxhH-187" value="+last_modified_data" style="text;align=left;verticalAlign=top;spacingLeft=4;spacingRight=4;overflow=hidden;rotatable=0;points=[[0,0.5],[1,0.5]];portConstraint=eastwest;rounded=0;shadow=0;html=0;" vertex="1" parent="xOh4gRkhBfYzAbslTxhH-180">
          <mxGeometry y="182" width="160" height="26" as="geometry" />
        </mxCell>
        <mxCell id="xOh4gRkhBfYzAbslTxhH-188" value="+user" style="text;align=left;verticalAlign=top;spacingLeft=4;spacingRight=4;overflow=hidden;rotatable=0;points=[[0,0.5],[1,0.5]];portConstraint=eastwest;rounded=0;shadow=0;html=0;" vertex="1" parent="xOh4gRkhBfYzAbslTxhH-180">
          <mxGeometry y="208" width="160" height="26" as="geometry" />
        </mxCell>
        <mxCell id="xOh4gRkhBfYzAbslTxhH-189" value="+url_video" style="text;align=left;verticalAlign=top;spacingLeft=4;spacingRight=4;overflow=hidden;rotatable=0;points=[[0,0.5],[1,0.5]];portConstraint=eastwest;rounded=0;shadow=0;html=0;" vertex="1" parent="xOh4gRkhBfYzAbslTxhH-180">
          <mxGeometry y="234" width="160" height="26" as="geometry" />
        </mxCell>
        <mxCell id="xOh4gRkhBfYzAbslTxhH-190" value="" style="line;html=1;strokeWidth=1;align=left;verticalAlign=middle;spacingTop=-1;spacingLeft=3;spacingRight=3;rotatable=0;labelPosition=right;points=[];portConstraint=eastwest;" vertex="1" parent="xOh4gRkhBfYzAbslTxhH-180">
          <mxGeometry y="260" width="160" height="8" as="geometry" />
        </mxCell>
        <mxCell id="xOh4gRkhBfYzAbslTxhH-191" value="" style="endArrow=none;html=1;rounded=0;exitX=0.5;exitY=0;exitDx=0;exitDy=0;entryX=0.5;entryY=1;entryDx=0;entryDy=0;" edge="1" parent="1" source="xOh4gRkhBfYzAbslTxhH-170" target="xOh4gRkhBfYzAbslTxhH-166">
          <mxGeometry width="50" height="50" relative="1" as="geometry">
            <mxPoint x="-445" y="262" as="sourcePoint" />
            <mxPoint x="-321" y="172" as="targetPoint" />
          </mxGeometry>
        </mxCell>
        <mxCell id="xOh4gRkhBfYzAbslTxhH-192" value="" style="endArrow=none;html=1;rounded=0;exitX=0.5;exitY=0;exitDx=0;exitDy=0;entryX=0;entryY=0.5;entryDx=0;entryDy=0;edgeStyle=orthogonalEdgeStyle;elbow=vertical;" edge="1" parent="1" target="xOh4gRkhBfYzAbslTxhH-181">
          <mxGeometry width="50" height="50" relative="1" as="geometry">
            <mxPoint x="-325" y="348" as="sourcePoint" />
            <mxPoint x="-315" y="222" as="targetPoint" />
            <Array as="points">
              <mxPoint x="-245" y="348" />
              <mxPoint x="-245" y="211" />
            </Array>
          </mxGeometry>
        </mxCell>
        <mxCell id="xOh4gRkhBfYzAbslTxhH-193" value="" style="endArrow=none;html=1;rounded=0;entryX=1;entryY=0.5;entryDx=0;entryDy=0;edgeStyle=orthogonalEdgeStyle;" edge="1" parent="1" source="xOh4gRkhBfYzAbslTxhH-171" target="xOh4gRkhBfYzAbslTxhH-156">
          <mxGeometry width="50" height="50" relative="1" as="geometry">
            <mxPoint x="-564.9999999999998" y="339.0000000000001" as="sourcePoint" />
            <mxPoint x="-404.9999999999998" y="202" as="targetPoint" />
          </mxGeometry>
        </mxCell>
        <mxCell id="xOh4gRkhBfYzAbslTxhH-194" value="Service" style="shape=folder;fontStyle=1;spacingTop=10;tabWidth=40;tabHeight=14;tabPosition=left;html=1;" vertex="1" parent="1">
          <mxGeometry x="480" y="296" width="100" height="66" as="geometry" />
        </mxCell>
        <mxCell id="xOh4gRkhBfYzAbslTxhH-195" value="Controller" style="shape=folder;fontStyle=1;spacingTop=10;tabWidth=40;tabHeight=14;tabPosition=left;html=1;" vertex="1" parent="1">
          <mxGeometry x="480" y="164" width="100" height="66" as="geometry" />
        </mxCell>
        <mxCell id="xOh4gRkhBfYzAbslTxhH-196" value="Repository" style="shape=folder;fontStyle=1;spacingTop=10;tabWidth=40;tabHeight=14;tabPosition=left;html=1;" vertex="1" parent="1">
          <mxGeometry x="475" y="600" width="100" height="66" as="geometry" />
        </mxCell>
        <mxCell id="xOh4gRkhBfYzAbslTxhH-197" value="0..*" style="text;html=1;align=center;verticalAlign=middle;resizable=0;points=[];autosize=1;strokeColor=none;fillColor=none;" vertex="1" parent="1">
          <mxGeometry x="-395" y="262" width="40" height="30" as="geometry" />
        </mxCell>
        <mxCell id="xOh4gRkhBfYzAbslTxhH-198" value="1" style="text;html=1;align=center;verticalAlign=middle;resizable=0;points=[];autosize=1;strokeColor=none;fillColor=none;" vertex="1" parent="1">
          <mxGeometry x="-390" y="162" width="30" height="30" as="geometry" />
        </mxCell>
        <mxCell id="xOh4gRkhBfYzAbslTxhH-199" value="1" style="text;html=1;align=center;verticalAlign=middle;resizable=0;points=[];autosize=1;strokeColor=none;fillColor=none;" vertex="1" parent="1">
          <mxGeometry x="-515" y="298" width="30" height="30" as="geometry" />
        </mxCell>
        <mxCell id="xOh4gRkhBfYzAbslTxhH-200" value="0..*" style="text;html=1;align=center;verticalAlign=middle;resizable=0;points=[];autosize=1;strokeColor=none;fillColor=none;" vertex="1" parent="1">
          <mxGeometry x="-595" y="252" width="40" height="30" as="geometry" />
        </mxCell>
        <mxCell id="xOh4gRkhBfYzAbslTxhH-201" value="1" style="text;html=1;align=center;verticalAlign=middle;resizable=0;points=[];autosize=1;strokeColor=none;fillColor=none;" vertex="1" parent="1">
          <mxGeometry x="-325" y="308" width="30" height="30" as="geometry" />
        </mxCell>
        <mxCell id="xOh4gRkhBfYzAbslTxhH-202" value="0..*" style="text;html=1;align=center;verticalAlign=middle;resizable=0;points=[];autosize=1;strokeColor=none;fillColor=none;" vertex="1" parent="1">
          <mxGeometry x="-215" y="182" width="40" height="30" as="geometry" />
        </mxCell>
        <mxCell id="xOh4gRkhBfYzAbslTxhH-203" value="Dto" style="shape=folder;fontStyle=1;spacingTop=10;tabWidth=40;tabHeight=14;tabPosition=left;html=1;" vertex="1" parent="1">
          <mxGeometry x="485" y="20" width="90" height="66" as="geometry" />
        </mxCell>
        <mxCell id="xOh4gRkhBfYzAbslTxhH-204" value="Security" style="shape=folder;fontStyle=1;spacingTop=10;tabWidth=40;tabHeight=14;tabPosition=left;html=1;" vertex="1" parent="1">
          <mxGeometry x="650" y="260" width="100" height="66" as="geometry" />
        </mxCell>
        <mxCell id="xOh4gRkhBfYzAbslTxhH-205" value="" style="endArrow=open;endFill=1;endSize=12;html=1;rounded=0;dashed=1;elbow=vertical;exitX=0;exitY=0;exitDx=0;exitDy=53;exitPerimeter=0;entryX=0;entryY=0;entryDx=850;entryDy=158;entryPerimeter=0;" edge="1" parent="1" source="xOh4gRkhBfYzAbslTxhH-203" target="xOh4gRkhBfYzAbslTxhH-154">
          <mxGeometry width="160" relative="1" as="geometry">
            <mxPoint x="334" y="230" as="sourcePoint" />
            <mxPoint x="494" y="230" as="targetPoint" />
          </mxGeometry>
        </mxCell>
        <mxCell id="xOh4gRkhBfYzAbslTxhH-206" value="" style="endArrow=open;endFill=1;endSize=12;html=1;rounded=0;dashed=1;elbow=vertical;entryX=0.5;entryY=1;entryDx=0;entryDy=0;entryPerimeter=0;" edge="1" parent="1" source="xOh4gRkhBfYzAbslTxhH-195" target="xOh4gRkhBfYzAbslTxhH-203">
          <mxGeometry width="160" relative="1" as="geometry">
            <mxPoint x="495" y="83" as="sourcePoint" />
            <mxPoint x="310" y="178" as="targetPoint" />
          </mxGeometry>
        </mxCell>
        <mxCell id="xOh4gRkhBfYzAbslTxhH-207" value="" style="endArrow=open;endFill=1;endSize=12;html=1;rounded=0;dashed=1;elbow=vertical;entryX=0.58;entryY=0.187;entryDx=0;entryDy=0;entryPerimeter=0;" edge="1" parent="1" target="xOh4gRkhBfYzAbslTxhH-194">
          <mxGeometry width="160" relative="1" as="geometry">
            <mxPoint x="540" y="230" as="sourcePoint" />
            <mxPoint x="540" y="96.00000000000011" as="targetPoint" />
          </mxGeometry>
        </mxCell>
        <mxCell id="xOh4gRkhBfYzAbslTxhH-208" value="" style="endArrow=open;endFill=1;endSize=12;html=1;rounded=0;dashed=1;elbow=vertical;entryX=0;entryY=0;entryDx=70;entryDy=14;entryPerimeter=0;" edge="1" parent="1" target="xOh4gRkhBfYzAbslTxhH-196">
          <mxGeometry width="160" relative="1" as="geometry">
            <mxPoint x="542" y="360" as="sourcePoint" />
            <mxPoint x="540" y="438.3420000000001" as="targetPoint" />
          </mxGeometry>
        </mxCell>
        <mxCell id="xOh4gRkhBfYzAbslTxhH-209" value="" style="endArrow=open;endFill=1;endSize=12;html=1;rounded=0;dashed=1;elbow=vertical;exitX=0;exitY=0;exitDx=0;exitDy=40;exitPerimeter=0;" edge="1" parent="1" source="xOh4gRkhBfYzAbslTxhH-196" target="xOh4gRkhBfYzAbslTxhH-154">
          <mxGeometry width="160" relative="1" as="geometry">
            <mxPoint x="485" y="306" as="sourcePoint" />
            <mxPoint x="300" y="401" as="targetPoint" />
          </mxGeometry>
        </mxCell>
        <mxCell id="xOh4gRkhBfYzAbslTxhH-210" value="&lt;b&gt;Entities&lt;/b&gt;" style="text;html=1;align=center;verticalAlign=middle;resizable=0;points=[];autosize=1;strokeColor=none;fillColor=none;" vertex="1" parent="1">
          <mxGeometry x="-448" y="20" width="70" height="30" as="geometry" />
        </mxCell>
        <mxCell id="xOh4gRkhBfYzAbslTxhH-211" value="" style="endArrow=open;endFill=1;endSize=12;html=1;rounded=0;dashed=1;elbow=vertical;entryX=0;entryY=0;entryDx=100;entryDy=53;entryPerimeter=0;exitX=0;exitY=0;exitDx=0;exitDy=27;exitPerimeter=0;" edge="1" parent="1" source="xOh4gRkhBfYzAbslTxhH-204" target="xOh4gRkhBfYzAbslTxhH-195">
          <mxGeometry width="160" relative="1" as="geometry">
            <mxPoint x="550" y="240" as="sourcePoint" />
            <mxPoint x="548" y="318.3420000000001" as="targetPoint" />
          </mxGeometry>
        </mxCell>
        <mxCell id="xOh4gRkhBfYzAbslTxhH-212" value="" style="endArrow=open;endFill=1;endSize=12;html=1;rounded=0;dashed=1;elbow=vertical;entryX=0;entryY=0;entryDx=100;entryDy=40;entryPerimeter=0;" edge="1" parent="1" target="xOh4gRkhBfYzAbslTxhH-194">
          <mxGeometry width="160" relative="1" as="geometry">
            <mxPoint x="650" y="300" as="sourcePoint" />
            <mxPoint x="590" y="226.9999999999999" as="targetPoint" />
          </mxGeometry>
        </mxCell>
        <mxCell id="xOh4gRkhBfYzAbslTxhH-213" value="Model" style="shape=folder;fontStyle=1;spacingTop=10;tabWidth=40;tabHeight=14;tabPosition=left;html=1;" vertex="1" parent="1">
          <mxGeometry x="485" y="-100" width="90" height="66" as="geometry" />
        </mxCell>
        <mxCell id="xOh4gRkhBfYzAbslTxhH-214" value="" style="endArrow=open;endFill=1;endSize=12;html=1;rounded=0;dashed=1;elbow=vertical;" edge="1" parent="1">
          <mxGeometry width="160" relative="1" as="geometry">
            <mxPoint x="550" y="-34" as="sourcePoint" />
            <mxPoint x="550" y="30" as="targetPoint" />
          </mxGeometry>
        </mxCell>
        <mxCell id="xOh4gRkhBfYzAbslTxhH-215" value="Validator" style="shape=folder;fontStyle=1;spacingTop=10;tabWidth=40;tabHeight=14;tabPosition=left;html=1;" vertex="1" parent="1">
          <mxGeometry x="650" y="382" width="100" height="66" as="geometry" />
        </mxCell>
        <mxCell id="xOh4gRkhBfYzAbslTxhH-216" value="" style="endArrow=open;endFill=1;endSize=12;html=1;rounded=0;dashed=1;elbow=vertical;entryX=0;entryY=0;entryDx=100;entryDy=66;entryPerimeter=0;exitX=0;exitY=0;exitDx=0;exitDy=14;exitPerimeter=0;" edge="1" parent="1" source="xOh4gRkhBfYzAbslTxhH-215" target="xOh4gRkhBfYzAbslTxhH-194">
          <mxGeometry width="160" relative="1" as="geometry">
            <mxPoint x="660" y="310" as="sourcePoint" />
            <mxPoint x="590" y="346" as="targetPoint" />
          </mxGeometry>
        </mxCell>
        <mxCell id="xOh4gRkhBfYzAbslTxhH-217" value="Utils" style="shape=folder;fontStyle=1;spacingTop=10;tabWidth=40;tabHeight=14;tabPosition=left;html=1;" vertex="1" parent="1">
          <mxGeometry x="1040" y="174" width="100" height="66" as="geometry" />
        </mxCell>
        <mxCell id="xOh4gRkhBfYzAbslTxhH-218" value="" style="endArrow=open;endFill=1;endSize=12;html=1;rounded=0;dashed=1;elbow=vertical;exitX=0;exitY=0;exitDx=0;exitDy=53;exitPerimeter=0;entryX=0;entryY=0;entryDx=850;entryDy=158;entryPerimeter=0;" edge="1" parent="1" source="xOh4gRkhBfYzAbslTxhH-217">
          <mxGeometry width="160" relative="1" as="geometry">
            <mxPoint x="925" y="180" as="sourcePoint" />
            <mxPoint x="740" y="275" as="targetPoint" />
          </mxGeometry>
        </mxCell>
        <mxCell id="xOh4gRkhBfYzAbslTxhH-219" value="Exception" style="shape=folder;fontStyle=1;spacingTop=10;tabWidth=40;tabHeight=14;tabPosition=left;html=1;" vertex="1" parent="1">
          <mxGeometry x="330" y="316" width="100" height="66" as="geometry" />
        </mxCell>
        <mxCell id="xOh4gRkhBfYzAbslTxhH-220" value="" style="endArrow=open;endFill=1;endSize=12;html=1;rounded=0;dashed=1;elbow=vertical;exitX=0.25;exitY=1;exitDx=0;exitDy=0;exitPerimeter=0;entryX=0;entryY=0;entryDx=100;entryDy=40;entryPerimeter=0;" edge="1" parent="1" source="xOh4gRkhBfYzAbslTxhH-217" target="xOh4gRkhBfYzAbslTxhH-215">
          <mxGeometry width="160" relative="1" as="geometry">
            <mxPoint x="1050" y="211" as="sourcePoint" />
            <mxPoint x="750" y="285" as="targetPoint" />
          </mxGeometry>
        </mxCell>
        <mxCell id="xOh4gRkhBfYzAbslTxhH-221" value="" style="endArrow=open;endFill=1;endSize=12;html=1;rounded=0;dashed=1;elbow=vertical;exitX=0;exitY=0;exitDx=0;exitDy=40;exitPerimeter=0;entryX=0;entryY=0;entryDx=100;entryDy=27;entryPerimeter=0;" edge="1" parent="1" source="xOh4gRkhBfYzAbslTxhH-217" target="xOh4gRkhBfYzAbslTxhH-195">
          <mxGeometry width="160" relative="1" as="geometry">
            <mxPoint x="1060" y="221" as="sourcePoint" />
            <mxPoint x="760" y="295" as="targetPoint" />
          </mxGeometry>
        </mxCell>
        <mxCell id="xOh4gRkhBfYzAbslTxhH-222" value="" style="endArrow=open;endFill=1;endSize=12;html=1;rounded=0;dashed=1;elbow=vertical;exitX=0;exitY=0;exitDx=0;exitDy=14;exitPerimeter=0;entryX=0;entryY=0;entryDx=90;entryDy=53;entryPerimeter=0;" edge="1" parent="1" source="xOh4gRkhBfYzAbslTxhH-217" target="xOh4gRkhBfYzAbslTxhH-203">
          <mxGeometry width="160" relative="1" as="geometry">
            <mxPoint x="1050" y="183" as="sourcePoint" />
            <mxPoint x="750" y="231" as="targetPoint" />
          </mxGeometry>
        </mxCell>
        <mxCell id="xOh4gRkhBfYzAbslTxhH-223" value="" style="endArrow=open;endFill=1;endSize=12;html=1;rounded=0;dashed=1;elbow=vertical;exitX=0;exitY=0;exitDx=70;exitDy=14;exitPerimeter=0;edgeStyle=orthogonalEdgeStyle;" edge="1" parent="1" source="xOh4gRkhBfYzAbslTxhH-217">
          <mxGeometry width="160" relative="1" as="geometry">
            <mxPoint x="1140" y="174" as="sourcePoint" />
            <mxPoint x="580" y="-50" as="targetPoint" />
            <Array as="points">
              <mxPoint x="1120" y="188" />
              <mxPoint x="1120" y="-50" />
            </Array>
          </mxGeometry>
        </mxCell>
        <mxCell id="xOh4gRkhBfYzAbslTxhH-224" value="" style="endArrow=open;endFill=1;endSize=12;html=1;rounded=0;dashed=1;elbow=vertical;entryX=0;entryY=0;entryDx=0;entryDy=27;entryPerimeter=0;exitX=0;exitY=0;exitDx=100;exitDy=27;exitPerimeter=0;" edge="1" parent="1" source="xOh4gRkhBfYzAbslTxhH-219" target="xOh4gRkhBfYzAbslTxhH-194">
          <mxGeometry width="160" relative="1" as="geometry">
            <mxPoint x="660" y="310" as="sourcePoint" />
            <mxPoint x="590" y="346" as="targetPoint" />
          </mxGeometry>
        </mxCell>
        <mxCell id="xOh4gRkhBfYzAbslTxhH-225" value="" style="endArrow=open;endFill=1;endSize=12;html=1;rounded=0;dashed=1;elbow=vertical;edgeStyle=orthogonalEdgeStyle;exitX=0.75;exitY=1;exitDx=0;exitDy=0;exitPerimeter=0;" edge="1" parent="1" source="xOh4gRkhBfYzAbslTxhH-217">
          <mxGeometry width="160" relative="1" as="geometry">
            <mxPoint x="1130" y="440" as="sourcePoint" />
            <mxPoint x="560" y="360" as="targetPoint" />
            <Array as="points">
              <mxPoint x="1090" y="240" />
              <mxPoint x="1090" y="500" />
              <mxPoint x="560" y="500" />
            </Array>
          </mxGeometry>
        </mxCell>
        <mxCell id="xOh4gRkhBfYzAbslTxhH-226" value="" style="endArrow=open;endFill=1;endSize=12;html=1;rounded=0;dashed=1;elbow=vertical;edgeStyle=orthogonalEdgeStyle;exitX=0.847;exitY=1.003;exitDx=0;exitDy=0;exitPerimeter=0;" edge="1" parent="1" source="xOh4gRkhBfYzAbslTxhH-217">
          <mxGeometry width="160" relative="1" as="geometry">
            <mxPoint x="1125" y="250" as="sourcePoint" />
            <mxPoint x="380" y="390" as="targetPoint" />
            <Array as="points">
              <mxPoint x="1125" y="510" />
              <mxPoint x="400" y="510" />
              <mxPoint x="400" y="440" />
              <mxPoint x="380" y="440" />
            </Array>
          </mxGeometry>
        </mxCell>
      </root>
    </mxGraphModel>
  </diagram>
</mxfile>
